<mxfile host="app.diagrams.net" agent="Mozilla/5.0 (Windows NT 10.0; Win64; x64) AppleWebKit/537.36 (KHTML, like Gecko) Chrome/131.0.0.0 Safari/537.36" version="25.0.3">
  <diagram name="Page-1" id="Y8HiLLUbflkKypUOfEOZ">
    <mxGraphModel dx="1434" dy="738" grid="1" gridSize="10" guides="1" tooltips="1" connect="1" arrows="1" fold="1" page="1" pageScale="1" pageWidth="850" pageHeight="1100" math="0" shadow="0">
      <root>
        <mxCell id="0" />
        <mxCell id="1" parent="0" />
        <mxCell id="Hf2kUb1GzDJlTwksJy2e-1" value="Martabe Prestasi" style="swimlane;whiteSpace=wrap;html=1;" parent="1" vertex="1">
          <mxGeometry x="280" y="180" width="550" height="770" as="geometry" />
        </mxCell>
        <mxCell id="Hf2kUb1GzDJlTwksJy2e-5" value="Login" style="ellipse;whiteSpace=wrap;html=1;fillColor=#dae8fc;strokeColor=#6c8ebf;" parent="Hf2kUb1GzDJlTwksJy2e-1" vertex="1">
          <mxGeometry x="220" y="70" width="90" height="50" as="geometry" />
        </mxCell>
        <mxCell id="Hf2kUb1GzDJlTwksJy2e-6" value="Management User &amp;amp; Role" style="ellipse;whiteSpace=wrap;html=1;fillColor=#dae8fc;strokeColor=#6c8ebf;" parent="Hf2kUb1GzDJlTwksJy2e-1" vertex="1">
          <mxGeometry x="220" y="150" width="90" height="50" as="geometry" />
        </mxCell>
        <mxCell id="Hf2kUb1GzDJlTwksJy2e-53" style="edgeStyle=elbowEdgeStyle;rounded=0;orthogonalLoop=1;jettySize=auto;html=1;exitX=0.5;exitY=1;exitDx=0;exitDy=0;entryX=0;entryY=0.5;entryDx=0;entryDy=0;fontFamily=Helvetica;fontSize=12;fontColor=default;endArrow=classic;endFill=1;dashed=1;" parent="Hf2kUb1GzDJlTwksJy2e-1" source="Hf2kUb1GzDJlTwksJy2e-7" target="Hf2kUb1GzDJlTwksJy2e-13" edge="1">
          <mxGeometry relative="1" as="geometry">
            <Array as="points">
              <mxPoint x="200" y="390" />
            </Array>
          </mxGeometry>
        </mxCell>
        <mxCell id="Hf2kUb1GzDJlTwksJy2e-55" value="Include" style="edgeLabel;html=1;align=center;verticalAlign=middle;resizable=0;points=[];dashed=1;strokeColor=default;fontFamily=Helvetica;fontSize=12;fontColor=default;fillColor=default;gradientColor=none;" parent="Hf2kUb1GzDJlTwksJy2e-53" vertex="1" connectable="0">
          <mxGeometry x="0.3444" y="-1" relative="1" as="geometry">
            <mxPoint as="offset" />
          </mxGeometry>
        </mxCell>
        <mxCell id="Hf2kUb1GzDJlTwksJy2e-56" style="edgeStyle=elbowEdgeStyle;rounded=0;orthogonalLoop=1;jettySize=auto;html=1;exitX=0.5;exitY=1;exitDx=0;exitDy=0;entryX=0;entryY=0.5;entryDx=0;entryDy=0;fontFamily=Helvetica;fontSize=12;fontColor=default;dashed=1;" parent="Hf2kUb1GzDJlTwksJy2e-1" source="Hf2kUb1GzDJlTwksJy2e-7" target="Hf2kUb1GzDJlTwksJy2e-26" edge="1">
          <mxGeometry relative="1" as="geometry">
            <Array as="points">
              <mxPoint x="160" y="430" />
            </Array>
          </mxGeometry>
        </mxCell>
        <mxCell id="Hf2kUb1GzDJlTwksJy2e-57" value="Include" style="edgeLabel;html=1;align=center;verticalAlign=middle;resizable=0;points=[];dashed=1;strokeColor=default;fontFamily=Helvetica;fontSize=12;fontColor=default;fillColor=default;gradientColor=none;" parent="Hf2kUb1GzDJlTwksJy2e-56" vertex="1" connectable="0">
          <mxGeometry x="0.2776" relative="1" as="geometry">
            <mxPoint as="offset" />
          </mxGeometry>
        </mxCell>
        <mxCell id="Hf2kUb1GzDJlTwksJy2e-7" value="Management Beasiswa" style="ellipse;whiteSpace=wrap;html=1;fillColor=#dae8fc;strokeColor=#6c8ebf;" parent="Hf2kUb1GzDJlTwksJy2e-1" vertex="1">
          <mxGeometry x="220" y="220" width="90" height="50" as="geometry" />
        </mxCell>
        <mxCell id="Hf2kUb1GzDJlTwksJy2e-10" value="Report Management" style="ellipse;whiteSpace=wrap;html=1;fillColor=#dae8fc;strokeColor=#6c8ebf;" parent="Hf2kUb1GzDJlTwksJy2e-1" vertex="1">
          <mxGeometry x="220" y="290" width="90" height="50" as="geometry" />
        </mxCell>
        <mxCell id="Hf2kUb1GzDJlTwksJy2e-11" value="Log Management" style="ellipse;whiteSpace=wrap;html=1;fillColor=#dae8fc;strokeColor=#6c8ebf;" parent="Hf2kUb1GzDJlTwksJy2e-1" vertex="1">
          <mxGeometry x="220" y="360" width="90" height="50" as="geometry" />
        </mxCell>
        <mxCell id="Hf2kUb1GzDJlTwksJy2e-12" value="Management Profile" style="ellipse;whiteSpace=wrap;html=1;fillColor=#dae8fc;strokeColor=#6c8ebf;" parent="Hf2kUb1GzDJlTwksJy2e-1" vertex="1">
          <mxGeometry x="220" y="430" width="90" height="50" as="geometry" />
        </mxCell>
        <mxCell id="Hf2kUb1GzDJlTwksJy2e-13" value="Pendaftaran Beasiswa" style="ellipse;whiteSpace=wrap;html=1;fillColor=#dae8fc;strokeColor=#6c8ebf;" parent="Hf2kUb1GzDJlTwksJy2e-1" vertex="1">
          <mxGeometry x="220" y="500" width="90" height="50" as="geometry" />
        </mxCell>
        <mxCell id="Hf2kUb1GzDJlTwksJy2e-26" value="Notifikasi" style="ellipse;whiteSpace=wrap;html=1;fillColor=#dae8fc;strokeColor=#6c8ebf;" parent="Hf2kUb1GzDJlTwksJy2e-1" vertex="1">
          <mxGeometry x="220" y="570" width="90" height="50" as="geometry" />
        </mxCell>
        <mxCell id="Hf2kUb1GzDJlTwksJy2e-27" value="Logout" style="ellipse;whiteSpace=wrap;html=1;fillColor=#dae8fc;strokeColor=#6c8ebf;" parent="Hf2kUb1GzDJlTwksJy2e-1" vertex="1">
          <mxGeometry x="220" y="640" width="90" height="50" as="geometry" />
        </mxCell>
        <mxCell id="Hf2kUb1GzDJlTwksJy2e-42" style="rounded=0;orthogonalLoop=1;jettySize=auto;html=1;exitX=0.5;exitY=0.5;exitDx=0;exitDy=0;exitPerimeter=0;entryX=0;entryY=0.5;entryDx=0;entryDy=0;" parent="1" source="Hf2kUb1GzDJlTwksJy2e-2" target="Hf2kUb1GzDJlTwksJy2e-7" edge="1">
          <mxGeometry relative="1" as="geometry" />
        </mxCell>
        <mxCell id="Hf2kUb1GzDJlTwksJy2e-43" style="rounded=0;orthogonalLoop=1;jettySize=auto;html=1;exitX=0.5;exitY=0.5;exitDx=0;exitDy=0;exitPerimeter=0;entryX=0;entryY=0.5;entryDx=0;entryDy=0;" parent="1" source="Hf2kUb1GzDJlTwksJy2e-2" target="Hf2kUb1GzDJlTwksJy2e-10" edge="1">
          <mxGeometry relative="1" as="geometry" />
        </mxCell>
        <mxCell id="Hf2kUb1GzDJlTwksJy2e-44" style="rounded=0;orthogonalLoop=1;jettySize=auto;html=1;entryX=0;entryY=0.5;entryDx=0;entryDy=0;exitX=0.5;exitY=0.5;exitDx=0;exitDy=0;exitPerimeter=0;" parent="1" source="Hf2kUb1GzDJlTwksJy2e-14" target="Hf2kUb1GzDJlTwksJy2e-11" edge="1">
          <mxGeometry relative="1" as="geometry" />
        </mxCell>
        <mxCell id="Hf2kUb1GzDJlTwksJy2e-45" style="rounded=0;orthogonalLoop=1;jettySize=auto;html=1;exitX=0.5;exitY=0.5;exitDx=0;exitDy=0;exitPerimeter=0;entryX=0;entryY=0.5;entryDx=0;entryDy=0;" parent="1" source="Hf2kUb1GzDJlTwksJy2e-2" target="Hf2kUb1GzDJlTwksJy2e-26" edge="1">
          <mxGeometry relative="1" as="geometry" />
        </mxCell>
        <mxCell id="Hf2kUb1GzDJlTwksJy2e-46" style="rounded=0;orthogonalLoop=1;jettySize=auto;html=1;exitX=0.5;exitY=0.5;exitDx=0;exitDy=0;exitPerimeter=0;entryX=0;entryY=0.5;entryDx=0;entryDy=0;" parent="1" source="Hf2kUb1GzDJlTwksJy2e-2" target="Hf2kUb1GzDJlTwksJy2e-27" edge="1">
          <mxGeometry relative="1" as="geometry" />
        </mxCell>
        <mxCell id="Hf2kUb1GzDJlTwksJy2e-2" value="PTAR Comp" style="shape=umlActor;verticalLabelPosition=bottom;verticalAlign=top;html=1;outlineConnect=0;" parent="1" vertex="1">
          <mxGeometry x="120" y="560" width="30" height="60" as="geometry" />
        </mxCell>
        <mxCell id="Hf2kUb1GzDJlTwksJy2e-37" style="rounded=0;orthogonalLoop=1;jettySize=auto;html=1;exitX=0.5;exitY=0.5;exitDx=0;exitDy=0;exitPerimeter=0;entryX=1;entryY=0.5;entryDx=0;entryDy=0;" parent="1" source="Hf2kUb1GzDJlTwksJy2e-3" target="Hf2kUb1GzDJlTwksJy2e-5" edge="1">
          <mxGeometry relative="1" as="geometry" />
        </mxCell>
        <mxCell id="Hf2kUb1GzDJlTwksJy2e-38" style="rounded=0;orthogonalLoop=1;jettySize=auto;html=1;exitX=0.5;exitY=0.5;exitDx=0;exitDy=0;exitPerimeter=0;entryX=1;entryY=0.5;entryDx=0;entryDy=0;" parent="1" source="Hf2kUb1GzDJlTwksJy2e-3" target="Hf2kUb1GzDJlTwksJy2e-12" edge="1">
          <mxGeometry relative="1" as="geometry" />
        </mxCell>
        <mxCell id="Hf2kUb1GzDJlTwksJy2e-39" style="rounded=0;orthogonalLoop=1;jettySize=auto;html=1;exitX=0.5;exitY=0.5;exitDx=0;exitDy=0;exitPerimeter=0;entryX=1;entryY=0.5;entryDx=0;entryDy=0;" parent="1" source="Hf2kUb1GzDJlTwksJy2e-3" target="Hf2kUb1GzDJlTwksJy2e-13" edge="1">
          <mxGeometry relative="1" as="geometry" />
        </mxCell>
        <mxCell id="Hf2kUb1GzDJlTwksJy2e-40" style="rounded=0;orthogonalLoop=1;jettySize=auto;html=1;exitX=0.5;exitY=0.5;exitDx=0;exitDy=0;exitPerimeter=0;entryX=1;entryY=0.5;entryDx=0;entryDy=0;" parent="1" source="Hf2kUb1GzDJlTwksJy2e-3" target="Hf2kUb1GzDJlTwksJy2e-26" edge="1">
          <mxGeometry relative="1" as="geometry" />
        </mxCell>
        <mxCell id="Hf2kUb1GzDJlTwksJy2e-41" style="rounded=0;orthogonalLoop=1;jettySize=auto;html=1;exitX=0.5;exitY=0.5;exitDx=0;exitDy=0;exitPerimeter=0;entryX=1;entryY=0.5;entryDx=0;entryDy=0;" parent="1" source="Hf2kUb1GzDJlTwksJy2e-3" target="Hf2kUb1GzDJlTwksJy2e-27" edge="1">
          <mxGeometry relative="1" as="geometry" />
        </mxCell>
        <mxCell id="Hf2kUb1GzDJlTwksJy2e-24" style="rounded=0;orthogonalLoop=1;jettySize=auto;html=1;exitX=0.5;exitY=0.5;exitDx=0;exitDy=0;exitPerimeter=0;entryX=1;entryY=0.5;entryDx=0;entryDy=0;" parent="1" source="Hf2kUb1GzDJlTwksJy2e-8" target="Hf2kUb1GzDJlTwksJy2e-5" edge="1">
          <mxGeometry relative="1" as="geometry" />
        </mxCell>
        <mxCell id="Hf2kUb1GzDJlTwksJy2e-25" style="rounded=0;orthogonalLoop=1;jettySize=auto;html=1;exitX=0.5;exitY=0.5;exitDx=0;exitDy=0;exitPerimeter=0;entryX=1;entryY=0.5;entryDx=0;entryDy=0;" parent="1" source="Hf2kUb1GzDJlTwksJy2e-8" target="Hf2kUb1GzDJlTwksJy2e-12" edge="1">
          <mxGeometry relative="1" as="geometry" />
        </mxCell>
        <mxCell id="Hf2kUb1GzDJlTwksJy2e-28" style="rounded=0;orthogonalLoop=1;jettySize=auto;html=1;exitX=0.5;exitY=0.5;exitDx=0;exitDy=0;exitPerimeter=0;entryX=1;entryY=0.5;entryDx=0;entryDy=0;" parent="1" source="Hf2kUb1GzDJlTwksJy2e-8" target="Hf2kUb1GzDJlTwksJy2e-13" edge="1">
          <mxGeometry relative="1" as="geometry" />
        </mxCell>
        <mxCell id="Hf2kUb1GzDJlTwksJy2e-29" style="rounded=0;orthogonalLoop=1;jettySize=auto;html=1;exitX=0.5;exitY=0.5;exitDx=0;exitDy=0;exitPerimeter=0;entryX=1;entryY=0.5;entryDx=0;entryDy=0;" parent="1" source="Hf2kUb1GzDJlTwksJy2e-8" target="Hf2kUb1GzDJlTwksJy2e-26" edge="1">
          <mxGeometry relative="1" as="geometry" />
        </mxCell>
        <mxCell id="Hf2kUb1GzDJlTwksJy2e-30" style="rounded=0;orthogonalLoop=1;jettySize=auto;html=1;exitX=0.5;exitY=0.5;exitDx=0;exitDy=0;exitPerimeter=0;entryX=1;entryY=0.5;entryDx=0;entryDy=0;" parent="1" source="Hf2kUb1GzDJlTwksJy2e-8" target="Hf2kUb1GzDJlTwksJy2e-27" edge="1">
          <mxGeometry relative="1" as="geometry" />
        </mxCell>
        <mxCell id="Hf2kUb1GzDJlTwksJy2e-32" style="rounded=0;orthogonalLoop=1;jettySize=auto;html=1;exitX=0.5;exitY=0.5;exitDx=0;exitDy=0;exitPerimeter=0;entryX=1;entryY=0.5;entryDx=0;entryDy=0;" parent="1" source="Hf2kUb1GzDJlTwksJy2e-9" target="Hf2kUb1GzDJlTwksJy2e-5" edge="1">
          <mxGeometry relative="1" as="geometry" />
        </mxCell>
        <mxCell id="Hf2kUb1GzDJlTwksJy2e-33" style="rounded=0;orthogonalLoop=1;jettySize=auto;html=1;exitX=0.5;exitY=0.5;exitDx=0;exitDy=0;exitPerimeter=0;entryX=1;entryY=0.5;entryDx=0;entryDy=0;" parent="1" source="Hf2kUb1GzDJlTwksJy2e-9" target="Hf2kUb1GzDJlTwksJy2e-12" edge="1">
          <mxGeometry relative="1" as="geometry" />
        </mxCell>
        <mxCell id="Hf2kUb1GzDJlTwksJy2e-34" style="rounded=0;orthogonalLoop=1;jettySize=auto;html=1;exitX=0.5;exitY=0.5;exitDx=0;exitDy=0;exitPerimeter=0;entryX=1;entryY=0.5;entryDx=0;entryDy=0;" parent="1" source="Hf2kUb1GzDJlTwksJy2e-9" target="Hf2kUb1GzDJlTwksJy2e-13" edge="1">
          <mxGeometry relative="1" as="geometry" />
        </mxCell>
        <mxCell id="Hf2kUb1GzDJlTwksJy2e-35" style="rounded=0;orthogonalLoop=1;jettySize=auto;html=1;exitX=0.5;exitY=0.5;exitDx=0;exitDy=0;exitPerimeter=0;entryX=1;entryY=0.5;entryDx=0;entryDy=0;" parent="1" source="Hf2kUb1GzDJlTwksJy2e-9" target="Hf2kUb1GzDJlTwksJy2e-26" edge="1">
          <mxGeometry relative="1" as="geometry" />
        </mxCell>
        <mxCell id="Hf2kUb1GzDJlTwksJy2e-36" style="rounded=0;orthogonalLoop=1;jettySize=auto;html=1;exitX=0.5;exitY=0.5;exitDx=0;exitDy=0;exitPerimeter=0;entryX=1;entryY=0.5;entryDx=0;entryDy=0;" parent="1" source="Hf2kUb1GzDJlTwksJy2e-9" target="Hf2kUb1GzDJlTwksJy2e-27" edge="1">
          <mxGeometry relative="1" as="geometry" />
        </mxCell>
        <mxCell id="Hf2kUb1GzDJlTwksJy2e-16" style="rounded=0;orthogonalLoop=1;jettySize=auto;html=1;exitX=0.5;exitY=0.5;exitDx=0;exitDy=0;exitPerimeter=0;entryX=0;entryY=0.5;entryDx=0;entryDy=0;" parent="1" source="Hf2kUb1GzDJlTwksJy2e-14" target="Hf2kUb1GzDJlTwksJy2e-5" edge="1">
          <mxGeometry relative="1" as="geometry" />
        </mxCell>
        <mxCell id="Hf2kUb1GzDJlTwksJy2e-17" style="rounded=0;orthogonalLoop=1;jettySize=auto;html=1;exitX=0.5;exitY=0.5;exitDx=0;exitDy=0;exitPerimeter=0;entryX=0;entryY=0.5;entryDx=0;entryDy=0;" parent="1" source="Hf2kUb1GzDJlTwksJy2e-14" target="Hf2kUb1GzDJlTwksJy2e-6" edge="1">
          <mxGeometry relative="1" as="geometry" />
        </mxCell>
        <mxCell id="Hf2kUb1GzDJlTwksJy2e-18" style="rounded=0;orthogonalLoop=1;jettySize=auto;html=1;exitX=0.5;exitY=0.5;exitDx=0;exitDy=0;exitPerimeter=0;entryX=0;entryY=0.5;entryDx=0;entryDy=0;" parent="1" source="Hf2kUb1GzDJlTwksJy2e-14" target="Hf2kUb1GzDJlTwksJy2e-7" edge="1">
          <mxGeometry relative="1" as="geometry" />
        </mxCell>
        <mxCell id="Hf2kUb1GzDJlTwksJy2e-19" style="rounded=0;orthogonalLoop=1;jettySize=auto;html=1;exitX=0.5;exitY=0.5;exitDx=0;exitDy=0;exitPerimeter=0;entryX=0;entryY=0.5;entryDx=0;entryDy=0;" parent="1" source="Hf2kUb1GzDJlTwksJy2e-14" target="Hf2kUb1GzDJlTwksJy2e-10" edge="1">
          <mxGeometry relative="1" as="geometry" />
        </mxCell>
        <mxCell id="Hf2kUb1GzDJlTwksJy2e-20" style="rounded=0;orthogonalLoop=1;jettySize=auto;html=1;exitX=0.5;exitY=0.5;exitDx=0;exitDy=0;exitPerimeter=0;entryX=0;entryY=0.5;entryDx=0;entryDy=0;" parent="1" source="Hf2kUb1GzDJlTwksJy2e-14" target="Hf2kUb1GzDJlTwksJy2e-11" edge="1">
          <mxGeometry relative="1" as="geometry" />
        </mxCell>
        <mxCell id="Hf2kUb1GzDJlTwksJy2e-14" value="Super Admin" style="shape=umlActor;verticalLabelPosition=bottom;verticalAlign=top;html=1;outlineConnect=0;" parent="1" vertex="1">
          <mxGeometry x="120" y="410" width="30" height="60" as="geometry" />
        </mxCell>
        <mxCell id="Hf2kUb1GzDJlTwksJy2e-50" value="" style="swimlane;startSize=0;dashed=1;strokeColor=default;align=center;verticalAlign=middle;fontFamily=Helvetica;fontSize=12;fontColor=default;fillColor=default;gradientColor=none;" parent="1" vertex="1">
          <mxGeometry x="870" y="280" width="225" height="520" as="geometry" />
        </mxCell>
        <mxCell id="Hf2kUb1GzDJlTwksJy2e-51" value="Eksternal" style="text;html=1;align=center;verticalAlign=middle;resizable=0;points=[];autosize=1;strokeColor=none;fillColor=none;fontFamily=Helvetica;fontSize=12;fontColor=default;" parent="Hf2kUb1GzDJlTwksJy2e-50" vertex="1">
          <mxGeometry x="75" width="70" height="30" as="geometry" />
        </mxCell>
        <mxCell id="Hf2kUb1GzDJlTwksJy2e-9" value="Admin Sekolah" style="shape=umlActor;verticalLabelPosition=bottom;verticalAlign=top;html=1;outlineConnect=0;" parent="Hf2kUb1GzDJlTwksJy2e-50" vertex="1">
          <mxGeometry x="95" y="190" width="30" height="60" as="geometry" />
        </mxCell>
        <mxCell id="Hf2kUb1GzDJlTwksJy2e-8" value="Mahasiswa" style="shape=umlActor;verticalLabelPosition=bottom;verticalAlign=top;html=1;outlineConnect=0;" parent="Hf2kUb1GzDJlTwksJy2e-50" vertex="1">
          <mxGeometry x="97.5" y="30" width="30" height="60" as="geometry" />
        </mxCell>
        <mxCell id="Hf2kUb1GzDJlTwksJy2e-3" value="Siswa SMA" style="shape=umlActor;verticalLabelPosition=bottom;verticalAlign=top;html=1;outlineConnect=0;" parent="Hf2kUb1GzDJlTwksJy2e-50" vertex="1">
          <mxGeometry x="95" y="360" width="30" height="60" as="geometry" />
        </mxCell>
        <mxCell id="Hf2kUb1GzDJlTwksJy2e-48" value="" style="swimlane;startSize=0;dashed=1;strokeColor=default;align=center;verticalAlign=middle;fontFamily=Helvetica;fontSize=12;fontColor=default;fillColor=default;gradientColor=none;" parent="1" vertex="1">
          <mxGeometry x="20" y="290" width="225" height="520" as="geometry" />
        </mxCell>
        <mxCell id="Hf2kUb1GzDJlTwksJy2e-49" value="Internal" style="text;html=1;align=center;verticalAlign=middle;resizable=0;points=[];autosize=1;strokeColor=none;fillColor=none;fontFamily=Helvetica;fontSize=12;fontColor=default;" parent="Hf2kUb1GzDJlTwksJy2e-48" vertex="1">
          <mxGeometry x="80" width="60" height="30" as="geometry" />
        </mxCell>
      </root>
    </mxGraphModel>
  </diagram>
</mxfile>
